# Blender v2.79 (sub 0) OBJ File: ''
# www.blender.org
o Cube
v 1.000000 -1.000000 -1.000000
v 1.000000 -1.000000 1.000000
v -1.000000 -1.000000 1.000000
v -1.000000 -1.000000 -1.000000
v 1.000000 11.000000 -0.999999
v 0.999999 11.000000 1.000001
v -1.000000 11.000000 1.000000
v -1.000000 11.000000 -1.000000
v -0.756884 10.811049 -0.065052
v -0.756884 11.492590 -0.065052
v -0.756884 10.811049 -0.746592
v -0.756884 11.492590 -0.746592
v -0.075344 10.811049 -0.065052
v -0.075344 11.492590 -0.065052
v -0.075344 10.811049 -0.746592
v -0.075344 11.492590 -0.746592
vt 0.666859 0.337320
vt 0.833487 0.170692
vt 0.833487 0.337320
vt 0.500000 0.999885
vt 0.333372 0.000115
vt 0.500000 0.000115
vt 0.333372 0.999885
vt 0.166744 0.000115
vt 0.166744 0.999885
vt 0.000116 0.000115
vt 0.666628 0.999885
vt 0.780423 0.056897
vt 0.723641 0.000115
vt 0.780423 0.000115
vt 0.723641 0.056897
vt 0.666859 0.113679
vt 0.666859 0.056897
vt 0.723641 0.113679
vt 0.780423 0.170461
vt 0.723641 0.170461
vt 0.780423 0.113679
vt 0.837205 0.056897
vt 0.837205 0.113679
vt 0.666859 0.170692
vt 0.000115 0.999885
vt 0.666628 0.000115
vn 0.0000 1.0000 0.0000
vn 1.0000 -0.0000 0.0000
vn 0.0000 -0.0000 1.0000
vn -1.0000 -0.0000 -0.0000
vn 0.0000 0.0000 -1.0000
s off
f 8/1/1 6/2/1 5/3/1
f 5/4/2 2/5/2 1/6/2
f 6/7/3 3/8/3 2/5/3
f 7/9/4 4/10/4 3/8/4
f 1/6/5 8/11/5 5/4/5
f 10/12/4 11/13/4 9/14/4
f 12/15/5 15/16/5 11/17/5
f 16/18/2 13/19/2 15/20/2
f 14/21/3 9/22/3 13/23/3
f 12/15/1 14/21/1 16/18/1
f 8/1/1 7/24/1 6/2/1
f 5/4/2 6/7/2 2/5/2
f 6/7/3 7/9/3 3/8/3
f 7/9/4 8/25/4 4/10/4
f 1/6/5 4/26/5 8/11/5
f 10/12/4 12/15/4 11/13/4
f 12/15/5 16/18/5 15/16/5
f 16/18/2 14/21/2 13/19/2
f 14/21/3 10/12/3 9/22/3
f 12/15/1 10/12/1 14/21/1
