# Blender v2.79 (sub 0) OBJ File: ''
# www.blender.org
o Cylinder
v 0.000000 5.613072 -1.000000
v 0.000000 -1.227605 -1.000000
v 0.707107 5.613072 -0.707107
v 0.707107 -1.227605 -0.707107
v 1.000000 5.613072 0.000000
v 1.000000 -1.227605 0.000000
v 0.707107 5.613072 0.707107
v 0.707107 -1.227605 0.707107
v -0.000000 5.613072 1.000000
v -0.000000 -1.227605 1.000000
v -0.707107 5.613072 0.707107
v -0.707107 -1.227605 0.707107
v -1.000000 5.613072 -0.000000
v -1.000000 -1.227605 -0.000000
v -0.707107 5.613072 -0.707107
v -0.707107 -1.227605 -0.707107
vn 0.3827 0.0000 -0.9239
vn 0.9239 0.0000 -0.3827
vn 0.9239 0.0000 0.3827
vn 0.3827 0.0000 0.9239
vn -0.3827 0.0000 0.9239
vn -0.9239 0.0000 0.3827
vn 0.0000 -1.0000 0.0000
vn -0.9239 0.0000 -0.3827
vn -0.3827 0.0000 -0.9239
vn 0.0000 1.0000 0.0000
s off
f 2//1 1//1 3//1
f 4//2 3//2 5//2
f 6//3 5//3 7//3
f 8//4 7//4 9//4
f 10//5 9//5 11//5
f 12//6 11//6 13//6
f 6//7 14//7 2//7
f 14//8 13//8 15//8
f 16//9 15//9 1//9
f 15//10 7//10 3//10
f 2//1 3//1 4//1
f 4//2 5//2 6//2
f 6//3 7//3 8//3
f 8//4 9//4 10//4
f 10//5 11//5 12//5
f 12//6 13//6 14//6
f 6//7 2//7 4//7
f 2//7 14//7 16//7
f 14//7 10//7 12//7
f 10//7 14//7 8//7
f 8//7 14//7 6//7
f 14//8 15//8 16//8
f 16//9 1//9 2//9
f 15//10 3//10 1//10
f 3//10 7//10 5//10
f 7//10 11//10 9//10
f 11//10 7//10 13//10
f 13//10 7//10 15//10
