# Blender v2.79 (sub 0) OBJ File: 'wall.blend'
# www.blender.org
o Cube
v 6.000000 0.000000 -5.500000
v 6.000000 0.000000 -4.500000
v -6.000001 0.000000 -4.500000
v -5.999997 0.000000 -5.500000
v 6.000003 4.000000 -5.500000
v 5.999996 4.000000 -4.500000
v -6.000002 4.000000 -4.500000
v -5.999999 4.000000 -5.500000
v 6.000000 0.000000 4.500000
v 6.000000 0.000000 5.500000
v -6.000001 0.000000 5.500000
v -5.999997 0.000000 4.500000
v 6.000003 4.000000 4.500000
v 5.999996 4.000000 5.500000
v -6.000002 4.000000 5.500000
v -5.999999 4.000000 4.500000
v 4.500000 0.000000 -6.000000
v 6.000000 0.000000 -6.000000
v 6.000000 0.000000 6.000000
v 4.500000 0.000000 5.999997
v 4.500000 4.000000 -6.000003
v 6.000000 4.000000 -5.999996
v 6.000000 4.000000 6.000003
v 4.500000 4.000000 6.000000
v -6.000000 0.000000 -6.000000
v -4.500000 0.000000 -6.000000
v -4.500000 0.000000 6.000000
v -6.000000 0.000000 5.999997
v -6.000000 4.000000 -6.000003
v -4.500000 4.000000 -5.999996
v -4.500000 4.000000 6.000003
v -6.000000 4.000000 6.000000
vt 0.760081 0.989754
vt 0.800403 0.497951
vt 0.800403 0.989754
vt 0.667339 0.989754
vt 0.627016 0.497951
vt 0.667339 0.497951
vt 0.957661 0.997951
vt 0.917339 0.834016
vt 0.957661 0.834016
vt 0.328629 0.497951
vt 0.167339 0.989754
vt 0.167339 0.497951
vt 0.868952 0.997951
vt 0.828629 0.834016
vt 0.868952 0.834016
vt 0.163306 0.002049
vt 0.002016 0.493852
vt 0.002016 0.002049
vt 0.715726 0.989754
vt 0.756049 0.497951
vt 0.756049 0.989754
vt 0.671371 0.497951
vt 0.711694 0.989754
vt 0.671371 0.989754
vt 0.913307 0.997951
vt 0.872984 0.834016
vt 0.913307 0.834016
vt 0.493952 0.497951
vt 0.332661 0.989754
vt 0.332661 0.497951
vt 0.997984 0.165984
vt 0.957661 0.002049
vt 0.997984 0.002049
vt 0.163306 0.497951
vt 0.002016 0.989754
vt 0.002016 0.497951
vt 0.497984 0.989754
vt 0.558468 0.497951
vt 0.558468 0.989754
vt 0.893145 0.002049
vt 0.953629 0.493852
vt 0.893145 0.493853
vt 0.893145 0.497951
vt 0.953629 0.661885
vt 0.893145 0.661885
vt 0.167339 0.493852
vt 0.328629 0.002049
vt 0.328629 0.493852
vt 0.893145 0.665984
vt 0.953629 0.829918
vt 0.893145 0.829918
vt 0.824597 0.002049
vt 0.663307 0.493852
vt 0.663306 0.002049
vt 0.562500 0.989754
vt 0.622984 0.497951
vt 0.622984 0.989754
vt 0.828629 0.002049
vt 0.889113 0.493852
vt 0.828629 0.493853
vt 0.889113 0.829918
vt 0.828629 0.665984
vt 0.889113 0.665984
vt 0.659274 0.002049
vt 0.497984 0.493852
vt 0.497984 0.002049
vt 0.828629 0.497951
vt 0.889113 0.661885
vt 0.828629 0.661885
vt 0.493952 0.002049
vt 0.332661 0.493852
vt 0.332661 0.002049
vt 0.760081 0.497951
vt 0.627016 0.989754
vt 0.917339 0.997951
vt 0.328629 0.989754
vt 0.828629 0.997951
vt 0.163306 0.493852
vt 0.715726 0.497951
vt 0.711694 0.497951
vt 0.872984 0.997951
vt 0.493952 0.989754
vt 0.957661 0.165984
vt 0.163306 0.989754
vt 0.497984 0.497951
vt 0.953629 0.002049
vt 0.953629 0.497951
vt 0.167339 0.002049
vt 0.953629 0.665984
vt 0.824597 0.493852
vt 0.562500 0.497951
vt 0.889113 0.002049
vt 0.828629 0.829918
vt 0.659274 0.493852
vt 0.889113 0.497951
vt 0.493952 0.493852
vn 0.0000 -1.0000 0.0000
vn 0.0000 1.0000 0.0000
vn 1.0000 -0.0000 0.0000
vn 0.0000 -0.0000 1.0000
vn -1.0000 -0.0000 -0.0000
vn 0.0000 0.0000 -1.0000
s off
f 2/1/1 4/2/1 1/3/1
f 8/4/2 6/5/2 5/6/2
f 5/7/3 2/8/3 1/9/3
f 6/10/4 3/11/4 2/12/4
f 7/13/5 4/14/5 3/15/5
f 1/16/6 8/17/6 5/18/6
f 10/19/1 12/20/1 9/21/1
f 16/22/2 14/23/2 13/24/2
f 13/25/3 10/26/3 9/27/3
f 14/28/4 11/29/4 10/30/4
f 15/31/5 12/32/5 11/33/5
f 9/34/6 16/35/6 13/36/6
f 18/37/1 20/38/1 17/39/1
f 24/40/2 22/41/2 21/42/2
f 21/43/6 18/44/6 17/45/6
f 22/46/3 19/47/3 18/48/3
f 23/49/4 20/50/4 19/51/4
f 17/52/5 24/53/5 21/54/5
f 26/55/1 28/56/1 25/57/1
f 32/58/2 30/59/2 29/60/2
f 29/61/6 26/62/6 25/63/6
f 30/64/3 27/65/3 26/66/3
f 31/67/4 28/68/4 27/69/4
f 25/70/5 32/71/5 29/72/5
f 2/1/1 3/73/1 4/2/1
f 8/4/2 7/74/2 6/5/2
f 5/7/3 6/75/3 2/8/3
f 6/10/4 7/76/4 3/11/4
f 7/13/5 8/77/5 4/14/5
f 1/16/6 4/78/6 8/17/6
f 10/19/1 11/79/1 12/20/1
f 16/22/2 15/80/2 14/23/2
f 13/25/3 14/81/3 10/26/3
f 14/28/4 15/82/4 11/29/4
f 15/31/5 16/83/5 12/32/5
f 9/34/6 12/84/6 16/35/6
f 18/37/1 19/85/1 20/38/1
f 24/40/2 23/86/2 22/41/2
f 21/43/6 22/87/6 18/44/6
f 22/46/3 23/88/3 19/47/3
f 23/49/4 24/89/4 20/50/4
f 17/52/5 20/90/5 24/53/5
f 26/55/1 27/91/1 28/56/1
f 32/58/2 31/92/2 30/59/2
f 29/61/6 30/93/6 26/62/6
f 30/64/3 31/94/3 27/65/3
f 31/67/4 32/95/4 28/68/4
f 25/70/5 28/96/5 32/71/5
